<svg id="Capa_1" enable-background="new 0 0 512 512" height="512" viewBox="0 0 512 512" width="512" xmlns="http://www.w3.org/2000/svg"><g><g><g><path d="m256 22.986v-22.986l-76.899 55.869 76.899 55.868v-22.986c98.559 0 178.742 80.183 178.742 178.742 0 98.558-80.183 178.742-178.742 178.742s-178.742-80.183-178.742-178.742h-65.765c0 135.037 109.47 244.507 244.507 244.507s244.507-109.47 244.507-244.507-109.469-244.507-244.507-244.507z" fill="#ff9368"/></g><g><path d="m256 378.449c-61.182 0-110.956-49.775-110.956-110.956s49.774-110.956 110.956-110.956 110.956 49.775 110.956 110.956-49.774 110.956-110.956 110.956z" fill="#f9ebd7"/></g><g><path d="m256 378.449c0-84.859 0-166.406 0-221.912 61.182 0 110.956 49.775 110.956 110.956s-49.774 110.956-110.956 110.956z" fill="#f3d6ae"/></g><g><path d="m274.043 309.433-33.043-26.465v-55.245h30v40.837l21.797 17.458z" fill="#f00"/></g></g><g><path d="m256 22.986v-22.986 111.737-22.986c98.559 0 178.742 80.183 178.742 178.742 0 98.558-80.183 178.742-178.742 178.742v65.765c135.037 0 244.507-109.469 244.507-244.507 0-135.037-109.469-244.507-244.507-244.507z" fill="#ff641a"/></g></g></svg>