<?xml version="1.0" encoding="iso-8859-1"?>
<!-- Generator: Adobe Illustrator 19.0.0, SVG Export Plug-In . SVG Version: 6.00 Build 0)  -->
<svg version="1.1" id="Capa_1" xmlns="http://www.w3.org/2000/svg" xmlns:xlink="http://www.w3.org/1999/xlink" x="0px" y="0px"
	 viewBox="0 0 512 512" style="enable-background:new 0 0 512 512;" xml:space="preserve">
<path style="fill:#17ACE8;" d="M481,75v422c0,8.401-6.599,15-15,15H121l-30-31.5V77.1l30-28.8l180,6.3L451,60h15
	C474.401,60,481,66.599,481,75z"/>
<path style="fill:#1689FC;" d="M481,75v422c0,8.401-6.599,15-15,15H301V54.6L451,60h15C474.401,60,481,66.599,481,75z"/>
<path style="fill:#08469C;" d="M31,30v407c0,36.216,25.809,66.513,60,73.482c4.849,0.989,9.864,1.518,15,1.518h15V48.214L31,30z"/>
<path style="fill:#CAE8F9;" d="M301,240v92c0,16.5,13.5,30,30,30s30,13.5,30,30v30c0,16.5-13.5,30-30,30c-10.499,0-20.7-1.8-30-5.4
	c-34.799-12.301-60-45.6-60-84.6V210c0-39,25.201-72.299,60-84.6c9.3-3.6,19.501-5.4,30-5.4c16.5,0,30,13.5,30,30v30
	c0,16.5-13.5,30-30,30S301,223.5,301,240z"/>
<g>
	<path style="fill:#B7E0F6;" d="M361,150v30c0,16.5-13.5,30-30,30s-30,13.5-30,30V125.4c9.3-3.6,19.501-5.4,30-5.4
		C347.5,120,361,133.5,361,150z"/>
	<path style="fill:#B7E0F6;" d="M361,392v30c0,16.5-13.5,30-30,30c-10.499,0-20.7-1.8-30-5.4V332c0,16.5,13.5,30,30,30
		S361,375.5,361,392z"/>
	<path style="fill:#B7E0F6;" d="M451,15v45H61c-16.5,0-30-13.5-30-30S44.5,0,61,0h375C444.401,0,451,6.599,451,15z"/>
</g>
<path style="fill:#A4D9F5;" d="M451,15v45H301V0h135C444.401,0,451,6.599,451,15z"/>
<g>
</g>
<g>
</g>
<g>
</g>
<g>
</g>
<g>
</g>
<g>
</g>
<g>
</g>
<g>
</g>
<g>
</g>
<g>
</g>
<g>
</g>
<g>
</g>
<g>
</g>
<g>
</g>
<g>
</g>
</svg>
